# xmcd
#
# Track frame offsets:
#	150
#	17234
#	34636
#	52786
#	71984
#	94563
#	114517
#	130420
#	154946
#	168977
#	187424
#	201672
#
# Disc length: 2927 seconds
# Revision: 0
# Processed by: cddbd v1.5.2PL0 Copyright (c) Steve Scherf et al.
# Submitted via: dBpowerAMP V12.0
#
DISCID=ad0b6d0c
DTITLE=Nat Myria Benedetti - Forever Love Hits
DYEAR=2010
DGENRE=International
TTITLE0=Ruk mai chuey arai
TTITLE1=Kor tod tee kuan jai tur
TTITLE2=Kong kwan wan pued jai
TTITLE3=Fah kub ta wan
TTITLE4=Eek narn mai
TTITLE5=Wang muer rai mah eek na
TTITLE6=Duey ruk jak jai
TTITLE7=Duey muen kong tur
TTITLE8=Atitarn
TTITLE9=Jak puen kon neung
TTITLE10=Puen tae kon sood tai
TTITLE11=Kor chun fun
EXTD=
EXTT0=
EXTT1=
EXTT2=
EXTT3=
EXTT4=
EXTT5=
EXTT6=
EXTT7=
EXTT8=
EXTT9=
EXTT10=
EXTT11=
PLAYORDER=
